<?xml version="1.0" standalone="no"?><!DOCTYPE svg PUBLIC "-//W3C//DTD SVG 1.1//EN" "http://www.w3.org/Graphics/SVG/1.1/DTD/svg11.dtd"><svg class="icon" width="200px" height="200.00px" viewBox="0 0 1024 1024" version="1.1" xmlns="http://www.w3.org/2000/svg"><path d="M370.63168 427.18208 649.9072 427.18208 649.9072 529.49504 370.63168 529.49504 370.63168 427.18208ZM757.632 59.63776 262.26176 59.63776C151.36768 59.63776 61.44 150.01088 61.44 261.49888l0 497.87904c0 111.47776 89.9328 201.8304 200.82176 201.8304l495.36512 0c110.91968 0 200.84224-90.34752 200.84224-201.8304L958.46912 261.49888C958.46912 150.016 868.53632 59.63776 757.632 59.63776L757.632 59.63776zM272.37376 264.32l475.19744 0 0 53.5296L272.37376 317.8496 272.37376 264.32 272.37376 264.32zM313.63072 582.91712l0-209.2032 392.61696 0 0 209.2032L313.63072 582.91712 313.63072 582.91712zM761.0368 756.50048 258.93888 756.50048l0-52.92032 146.304 0c-13.39392-28.14464-30.86848-58.42432-52.52096-90.91072l52.52096-20.75648c20.84864 30.8736 39.45472 68.11136 55.94112 111.7184l99.41504 0c19.71712-33.67424 36.95616-70.94784 51.8144-111.7184l57.07264 20.75648c-14.88384 34.44224-31.03232 64.7424-48.11264 90.91072l139.68896 0 0 52.92032L761.0368 756.50048 761.0368 756.50048z" /></svg>