<?xml version="1.0" standalone="no"?><!DOCTYPE svg PUBLIC "-//W3C//DTD SVG 1.1//EN" "http://www.w3.org/Graphics/SVG/1.1/DTD/svg11.dtd"><svg class="icon" width="200px" height="200.00px" viewBox="0 0 1024 1024" version="1.1" xmlns="http://www.w3.org/2000/svg"><path d="M102.4 284.672c0-39.595008 8.532992-74.411008 25.6-104.448 17.067008-30.036992 36.180992-52.224 57.344-66.56 21.163008-14.336 44.715008-25.940992 70.656-34.816 25.940992-8.875008 45.056-13.995008 57.344-15.36 12.288-1.364992 21.163008-2.048 26.624-2.048 0 0 235.52 0 235.52 0 0 0 0 4.096 0 4.096 0 15.019008-26.624 27.307008-79.872 36.864-19.115008 0-32.084992 2.048-38.912 6.144 27.307008 13.652992 45.739008 32.768 55.296 57.344 9.556992 24.576 14.336 57.344 14.336 98.304 0 69.632-23.211008 123.563008-69.632 161.792-25.940992 25.940992-38.912 44.372992-38.912 55.296 0 12.288 17.067008 34.132992 51.2 65.536 70.996992 61.44 106.496 122.196992 106.496 182.272 0 95.572992-39.595008 161.792-118.784 198.656-46.420992 23.211008-97.620992 34.816-153.6 34.816 0 0-4.096 0-4.096 0 0 0-4.096-2.048-4.096-2.048-1.364992 1.364992-2.731008 2.048-4.096 2.048-16.384 0-34.816-1.707008-55.296-5.12-20.48-3.412992-46.08-10.580992-76.8-21.504-30.72-10.923008-55.979008-30.379008-75.776-58.368-19.796992-27.988992-29.696-63.147008-29.696-105.472 0-40.96 10.923008-75.435008 32.768-103.424 21.844992-27.988992 50.176-47.444992 84.992-58.368 34.816-10.923008 64.852992-18.432 90.112-22.528 25.259008-4.096 49.492992-6.144 72.704-6.144 0 0 2.048 0 2.048 0-10.923008-15.019008-19.115008-31.060992-24.576-48.128-5.460992-17.067008-8.192-30.379008-8.192-39.936 0 0 2.048-14.336 2.048-14.336 0 0-14.336 0-14.336 0-43.691008 0-81.236992-10.24-112.64-30.72-50.516992-30.036992-75.776-84.651008-75.776-163.84 0 0 0 0 0 0m378.88 462.848c-2.731008-35.499008-17.408-64.171008-44.032-86.016-26.624-21.844992-61.780992-32.768-105.472-32.768 0 0-16.384 0-16.384 0-43.691008 1.364992-82.603008 17.067008-116.736 47.104-31.403008 28.672-45.739008 60.756992-43.008 96.256 2.731008 35.499008 20.820992 62.804992 54.272 81.92 33.451008 19.115008 74.068992 27.307008 121.856 24.576 46.420992-2.731008 83.627008-16.384 111.616-40.96 27.988992-24.576 40.619008-54.612992 37.888-90.112 0 0 0 0 0 0m-61.44-512c-20.48-73.728-62.123008-110.592-124.928-110.592-8.192 0-15.019008 0.683008-20.48 2.048-27.307008 8.192-47.104 29.355008-59.392 63.488-10.923008 34.132992-11.604992 70.315008-2.048 108.544 9.556992 35.499008 25.6 64.512 48.128 87.04 22.528 22.528 46.763008 33.792 72.704 33.792 8.192 0 14.336-0.683008 18.432-2.048 28.672-8.192 50.176-30.379008 64.512-66.56 14.336-36.180992 15.36-74.752 3.072-115.712 0 0 0 0 0 0m397.312 178.176c0 0 153.6 0 153.6 0 0 0 0 96.256 0 96.256 0 0-153.6 0-153.6 0 0 0 0 153.6 0 153.6 0 0-96.256 0-96.256 0 0 0 0-153.6 0-153.6 0 0-153.6 0-153.6 0 0 0 0-96.256 0-96.256 0 0 153.6 0 153.6 0 0 0 0-153.6 0-153.6 0 0 96.256 0 96.256 0 0 0 0 153.6 0 153.6 0 0 0 0 0 0" /></svg>