<?xml version="1.0" standalone="no"?><!DOCTYPE svg PUBLIC "-//W3C//DTD SVG 1.1//EN" "http://www.w3.org/Graphics/SVG/1.1/DTD/svg11.dtd"><svg class="icon" width="200px" height="200.00px" viewBox="0 0 1024 1024" version="1.1" xmlns="http://www.w3.org/2000/svg"><path d="M834.4 128 193.6 128C158.6 128 128 153.2 128 187.8l0 642.2c0 34.8 30.6 65.8 65.6 65.8l640.6 0c35.2 0 61.6-31.2 61.6-65.8L895.8 187.8C896 153.2 869.4 128 834.4 128zM366 768l-110 0L256 426l110 0L366 768zM314.8 374 314 374c-35.2 0-58-26.2-58-59 0-33.4 23.4-59 59.4-59 36 0 58 25.4 58.8 59C374.2 347.8 351.4 374 314.8 374zM768 768l-110 0 0-187c0-44.8-16-75.4-55.8-75.4-30.4 0-48.4 20.6-56.4 40.6-3 7.2-3.8 17-3.8 27L542 768l-110 0L432 426l110 0 0 47.6c16-22.8 41-55.6 99.2-55.6 72.2 0 126.8 47.6 126.8 150.2L768 768z" /></svg>