<?xml version="1.0" standalone="no"?><!DOCTYPE svg PUBLIC "-//W3C//DTD SVG 1.1//EN" "http://www.w3.org/Graphics/SVG/1.1/DTD/svg11.dtd"><svg t="1496307849282" class="icon" style="" viewBox="0 0 1024 1024" version="1.1" xmlns="http://www.w3.org/2000/svg" p-id="23534" xmlns:xlink="http://www.w3.org/1999/xlink" width="128" height="128"><defs><style type="text/css"></style></defs><path d="M117.289822 581.190849C83.834872 659.953703 78.399069 735.095078 105.258811 749.131769c18.522865 9.673313 47.565319-12.351306 74.746378-52.769854 10.762111 44.042075 37.394678 83.921341 75.436086 115.90887-39.897685 14.733563-65.964364 38.788421-65.964364 66.067718 0 44.837184 70.52831 81.0919 157.576875 81.0919 78.516238 0 143.540184-29.460985 155.540496-68.195172 3.224438-0.050142 15.623839-0.050142 18.751063 0 12.04943 38.685068 77.126588 68.195172 155.589614 68.195172 87.049588 0 157.576875-36.303834 157.576875-81.0919 0-27.230178-26.037003-51.334155-65.964364-66.067718 37.988196-32.036647 64.72207-71.866794 75.43711-115.90887 27.181059 40.419572 56.145741 62.443168 74.697259 52.769854 26.879184-14.036691 21.575388-89.226161-12.000312-167.939897-26.290783-61.897745-61.951981-107.48092-89.231277-117.547183 0.394996-3.920286 0.594541-7.938809 0.594541-11.903098 0-23.907503-6.643304-46.030359-18.002003-64.035432 0.195451-1.387603 0.195451-2.825348 0.195451-4.212952 0-11.011798-2.63092-21.326724-7.096628-30.255071C786.251689 192.334493 681.498904 64.569598 511.994372 64.569598c-169.600723 0-274.402627 127.764895-281.226033 288.667515-4.50971 8.977465-7.116071 19.292392-7.116071 30.255071 0 1.387603 0.097214 2.825348 0.150426 4.212952-11.260461 18.005073-17.907858 40.077787-17.907858 64.035432 0 3.965312 0.150426 7.934716 0.497327 11.903098C179.313433 473.710952 143.526369 519.342222 117.289822 581.190849L117.289822 581.190849zM117.289822 581.190849" p-id="23535"></path></svg>