<?xml version="1.0" standalone="no"?><!DOCTYPE svg PUBLIC "-//W3C//DTD SVG 1.1//EN" "http://www.w3.org/Graphics/SVG/1.1/DTD/svg11.dtd"><svg class="icon" width="200px" height="200.00px" viewBox="0 0 1024 1024" version="1.1" xmlns="http://www.w3.org/2000/svg"><path d="M1024 388.522667c0-11.349333 0-8.192-11.349333-8.192H706.389333L661.077333 299.52 536.32 59.776h-22.741333L400.256 299.52 354.816 380.330667H0v5.162666l64 45.354667 179.498667 158.890667-40.746667 363.136c0 11.392 2.346667 11.392 25.002667 11.392l296.064-181.589334 295.424 181.589334c11.349333 0 11.648 0 22.997333-11.392l-56.576-363.136 170.154667-146.005334L1024 388.522667zM275.498667 736.512l328.832-268.032-306.176-52.48h465.024l-283.562667 256.768 294.912 63.829333H275.498667v-0.085333z" /></svg>